<svg xmlns="http://www.w3.org/2000/svg" role="img" aria-labelledby="title desc" viewBox="0 0 900 520">
  <title id="title">Devices sharing a service through a network</title>
  <desc id="desc">A laptop and tablet connect to a switch, then a gateway, then a booking service.</desc>
  <rect width="900" height="520" rx="24" fill="#f4f8fb"/>
  <rect x="70" y="78" width="180" height="118" rx="16" fill="#ffffff" stroke="#c9d7e3" stroke-width="3"/>
  <rect x="96" y="104" width="128" height="70" rx="8" fill="#dceeff"/>
  <rect x="122" y="204" width="76" height="10" rx="5" fill="#607286"/>
  <text x="160" y="245" text-anchor="middle" font-family="Segoe UI, Arial, sans-serif" font-size="24" font-weight="700" fill="#17212b">Laptop</text>
  <rect x="92" y="322" width="136" height="92" rx="18" fill="#ffffff" stroke="#c9d7e3" stroke-width="3"/>
  <rect x="112" y="342" width="96" height="52" rx="8" fill="#dff7ec"/>
  <text x="160" y="454" text-anchor="middle" font-family="Segoe UI, Arial, sans-serif" font-size="24" font-weight="700" fill="#17212b">Tablet</text>
  <rect x="330" y="214" width="190" height="100" rx="18" fill="#071633"/>
  <rect x="356" y="245" width="28" height="28" rx="5" fill="#1769e0"/>
  <rect x="398" y="245" width="28" height="28" rx="5" fill="#23c08a"/>
  <rect x="440" y="245" width="28" height="28" rx="5" fill="#23c08a"/>
  <rect x="482" y="245" width="18" height="28" rx="5" fill="#7d8fa3"/>
  <text x="425" y="360" text-anchor="middle" font-family="Segoe UI, Arial, sans-serif" font-size="24" font-weight="700" fill="#17212b">Switch</text>
  <rect x="620" y="214" width="118" height="100" rx="20" fill="#ffffff" stroke="#1769e0" stroke-width="4"/>
  <path d="M664 260h30m-15-15v30" stroke="#1769e0" stroke-width="8" stroke-linecap="round"/>
  <text x="679" y="360" text-anchor="middle" font-family="Segoe UI, Arial, sans-serif" font-size="24" font-weight="700" fill="#17212b">Gateway</text>
  <rect x="735" y="82" width="110" height="72" rx="16" fill="#ffffff" stroke="#c9d7e3" stroke-width="3"/>
  <rect x="755" y="104" width="70" height="10" rx="5" fill="#1769e0"/>
  <rect x="755" y="126" width="48" height="10" rx="5" fill="#23c08a"/>
  <text x="790" y="192" text-anchor="middle" font-family="Segoe UI, Arial, sans-serif" font-size="24" font-weight="700" fill="#17212b">Booking</text>
  <path d="M250 142C295 142 293 252 330 252" fill="none" stroke="#1769e0" stroke-width="8" stroke-linecap="round"/>
  <path d="M228 368C292 368 290 276 330 276" fill="none" stroke="#0f7a75" stroke-width="8" stroke-linecap="round"/>
  <path d="M520 264h100" fill="none" stroke="#1769e0" stroke-width="8" stroke-linecap="round"/>
  <path d="M738 214C764 184 778 166 790 154" fill="none" stroke="#1769e0" stroke-width="8" stroke-linecap="round"/>
  <circle cx="290" cy="252" r="12" fill="#1769e0"/>
  <circle cx="292" cy="276" r="12" fill="#0f7a75"/>
  <circle cx="570" cy="264" r="12" fill="#1769e0"/>
  <text x="425" y="60" text-anchor="middle" font-family="Segoe UI, Arial, sans-serif" font-size="28" font-weight="800" fill="#0f5553">Two devices exchange useful information</text>
  <text x="425" y="452" text-anchor="middle" font-family="Segoe UI, Arial, sans-serif" font-size="22" fill="#5c6b7a">Device -> switch -> gateway -> service</text>
</svg>
