<svg xmlns="http://www.w3.org/2000/svg" role="img" aria-labelledby="title desc" viewBox="0 0 960 520">
  <title id="title">Annotated generic switch ports and LEDs</title>
  <desc id="desc">A generic switch with callouts for access ports, link LEDs, uplink, and console.</desc>
  <rect width="960" height="520" rx="28" fill="#f5f8fb"/>
  <rect x="96" y="188" width="768" height="156" rx="24" fill="#071633"/>
  <rect x="128" y="224" width="72" height="38" rx="8" fill="#111f3d" stroke="#9eb8d8" stroke-width="3"/>
  <text x="164" y="284" text-anchor="middle" font-family="Segoe UI, Arial, sans-serif" font-size="16" fill="#dce8f5">Console</text>
  <g fill="#101f3a" stroke="#c7d6e7" stroke-width="3">
    <rect x="278" y="222" width="42" height="34" rx="6"/><rect x="328" y="222" width="42" height="34" rx="6"/><rect x="378" y="222" width="42" height="34" rx="6"/><rect x="428" y="222" width="42" height="34" rx="6"/>
    <rect x="278" y="274" width="42" height="34" rx="6"/><rect x="328" y="274" width="42" height="34" rx="6"/><rect x="378" y="274" width="42" height="34" rx="6"/><rect x="428" y="274" width="42" height="34" rx="6"/>
  </g>
  <rect x="650" y="222" width="150" height="34" rx="8" fill="#1769e0"/>
  <rect x="650" y="274" width="150" height="34" rx="8" fill="#0f7a75"/>
  <g fill="#23c08a">
    <circle cx="299" cy="210" r="6"/><circle cx="349" cy="210" r="6"/><circle cx="399" cy="210" r="6"/><circle cx="449" cy="210" r="6"/>
  </g>
  <path d="M300 208C250 130 198 110 142 110" fill="none" stroke="#0f7a75" stroke-width="5"/>
  <path d="M372 240C452 132 518 104 604 104" fill="none" stroke="#1769e0" stroke-width="5"/>
  <path d="M724 222C760 146 806 118 870 110" fill="none" stroke="#1769e0" stroke-width="5"/>
  <path d="M166 224C118 166 92 132 72 116" fill="none" stroke="#a35e00" stroke-width="5"/>
  <g font-family="Segoe UI, Arial, sans-serif" font-size="21" font-weight="800">
    <rect x="36" y="76" width="210" height="54" rx="12" fill="#fff7e8" stroke="#e0b267"/>
    <text x="141" y="111" text-anchor="middle" fill="#7b4d00">Console</text>
    <rect x="494" y="72" width="220" height="64" rx="12" fill="#eaf2ff" stroke="#b7cdf7"/>
    <text x="604" y="111" text-anchor="middle" fill="#1769e0">Access ports</text>
    <rect x="754" y="76" width="194" height="54" rx="12" fill="#eaf7f4" stroke="#9fd0c4"/>
    <text x="851" y="111" text-anchor="middle" fill="#0f5553">Uplink area</text>
    <rect x="46" y="132" width="190" height="50" rx="12" fill="#eaf7f4" stroke="#9fd0c4"/>
    <text x="141" y="165" text-anchor="middle" fill="#0f5553">Link LEDs</text>
  </g>
  <text x="480" y="52" text-anchor="middle" font-family="Segoe UI, Arial, sans-serif" font-size="28" font-weight="800" fill="#0f5553">Annotated switch preview</text>
  <text x="480" y="438" text-anchor="middle" font-family="Segoe UI, Arial, sans-serif" font-size="20" fill="#5c6b7a">Labels preview future beginner lessons without claiming authored Level 1 coverage.</text>
</svg>
