<svg xmlns="http://www.w3.org/2000/svg" viewBox="0 0 680 420" role="img" aria-labelledby="title desc">
  <title id="title">Generic Command Doctor network learning scene</title>
  <desc id="desc">A generic switch connects a laptop, access point, gateway, and service node with blue and teal link paths.</desc>
  <defs>
    <linearGradient id="panel" x1="0" x2="1" y1="0" y2="1">
      <stop offset="0" stop-color="#102c68"/>
      <stop offset="1" stop-color="#061735"/>
    </linearGradient>
    <linearGradient id="device" x1="0" x2="1">
      <stop offset="0" stop-color="#25395d"/>
      <stop offset="1" stop-color="#111f3d"/>
    </linearGradient>
    <filter id="soft-shadow" x="-20%" y="-20%" width="140%" height="150%">
      <feDropShadow dx="0" dy="18" stdDeviation="20" flood-color="#020817" flood-opacity=".35"/>
    </filter>
  </defs>
  <rect width="680" height="420" rx="28" fill="url(#panel)"/>
  <path d="M90 308C160 206 280 198 352 244s162 42 238-74" fill="none" stroke="#1d9bf0" stroke-width="4" stroke-linecap="round" opacity=".55"/>
  <path d="M104 326c88-54 156-59 204-14 59 55 164 58 268-2" fill="none" stroke="#15c8b9" stroke-width="3" stroke-linecap="round" opacity=".45"/>
  <g filter="url(#soft-shadow)">
    <rect x="154" y="148" width="360" height="132" rx="22" fill="url(#device)" stroke="#78a9ff" stroke-opacity=".35"/>
    <rect x="184" y="178" width="300" height="72" rx="12" fill="#071226" stroke="#4b638d"/>
    <g fill="#dceafe">
      <rect x="203" y="196" width="27" height="22" rx="4"/>
      <rect x="240" y="196" width="27" height="22" rx="4"/>
      <rect x="277" y="196" width="27" height="22" rx="4"/>
      <rect x="314" y="196" width="27" height="22" rx="4"/>
      <rect x="351" y="196" width="27" height="22" rx="4"/>
      <rect x="388" y="196" width="27" height="22" rx="4"/>
      <rect x="425" y="196" width="27" height="22" rx="4"/>
    </g>
    <g fill="#2df0c2">
      <circle cx="216" cy="236" r="4"/>
      <circle cx="253" cy="236" r="4"/>
      <circle cx="327" cy="236" r="4"/>
      <circle cx="438" cy="236" r="4"/>
    </g>
    <path d="M480 210h54c20 0 36 16 36 36v42" fill="none" stroke="#19a8ff" stroke-width="10" stroke-linecap="round"/>
    <path d="M482 229h40c17 0 30 13 30 30v34" fill="none" stroke="#67e8f9" stroke-width="5" stroke-linecap="round" opacity=".8"/>
  </g>
  <g stroke="#86b7ff" stroke-width="2" fill="#0d244d">
    <rect x="68" y="86" width="92" height="62" rx="14"/>
    <rect x="526" y="74" width="90" height="64" rx="14"/>
    <rect x="83" y="302" width="88" height="54" rx="14"/>
    <rect x="500" y="315" width="110" height="58" rx="14"/>
  </g>
  <g fill="#eaf3ff" font-family="Arial, sans-serif" font-size="18" font-weight="700">
    <text x="94" y="122">Laptop</text>
    <text x="548" y="111">Service</text>
    <text x="101" y="336">AP</text>
    <text x="524" y="350">Gateway</text>
  </g>
  <g fill="none" stroke="#27d7c4" stroke-width="3" stroke-linecap="round">
    <path d="M160 117h74c39 0 70 31 70 70"/>
    <path d="M526 106h-72c-43 0-78 35-78 78"/>
    <path d="M171 329h64c47 0 86-38 86-86"/>
    <path d="M500 344h-78c-39 0-70-31-70-70"/>
  </g>
  <g fill="#ffffff" opacity=".88">
    <circle cx="232" cy="117" r="5"/>
    <circle cx="454" cy="106" r="5"/>
    <circle cx="236" cy="329" r="5"/>
    <circle cx="422" cy="344" r="5"/>
  </g>
</svg>
