<svg xmlns="http://www.w3.org/2000/svg" viewBox="0 0 720 420" role="img" aria-labelledby="title desc">
  <title id="title">Command Doctor phase context network path</title>
  <desc id="desc">An original generic network-training illustration showing endpoints connected through an access switch, gateway, secure boundary, and service.</desc>
  <metadata>
    {
      "asset_id": "mission_studio_phase_context",
      "rights_status": "original_command_doctor_asset",
      "remote_dependencies": [],
      "vendor_claim": "none",
      "purpose": "Reusable local phase-context visual for Course and Level Overview previews"
    }
  </metadata>
  <defs>
    <linearGradient id="panel" x1="0" y1="0" x2="1" y2="1">
      <stop offset="0" stop-color="#071a3c"/>
      <stop offset="1" stop-color="#0d3c77"/>
    </linearGradient>
    <linearGradient id="link" x1="0" y1="0" x2="1" y2="0">
      <stop offset="0" stop-color="#4fc3b1"/>
      <stop offset="0.5" stop-color="#1f7af7"/>
      <stop offset="1" stop-color="#65d38a"/>
    </linearGradient>
    <filter id="softShadow" x="-20%" y="-20%" width="140%" height="140%">
      <feDropShadow dx="0" dy="18" stdDeviation="18" flood-color="#071a3c" flood-opacity="0.22"/>
    </filter>
  </defs>
  <rect width="720" height="420" rx="28" fill="#eef5fb"/>
  <rect x="42" y="42" width="636" height="336" rx="26" fill="url(#panel)" filter="url(#softShadow)"/>
  <path d="M124 236 C206 168 290 166 360 214 S512 269 596 187" fill="none" stroke="url(#link)" stroke-width="10" stroke-linecap="round"/>
  <path d="M124 236 C206 168 290 166 360 214 S512 269 596 187" fill="none" stroke="#e8f3ff" stroke-width="2" stroke-linecap="round" stroke-dasharray="8 18" opacity="0.82"/>

  <g transform="translate(84 206)">
    <rect width="86" height="62" rx="12" fill="#ffffff"/>
    <rect x="14" y="13" width="58" height="34" rx="6" fill="#dff6f1"/>
    <path d="M22 53h42" stroke="#0b2550" stroke-width="4" stroke-linecap="round"/>
    <text x="43" y="87" text-anchor="middle" font-family="Arial, sans-serif" font-size="15" font-weight="700" fill="#d8e7ff">Endpoint</text>
  </g>

  <g transform="translate(248 155)">
    <rect width="150" height="82" rx="16" fill="#ffffff"/>
    <rect x="18" y="24" width="114" height="30" rx="6" fill="#0b2550"/>
    <g fill="#65d38a">
      <rect x="30" y="34" width="12" height="9" rx="2"/>
      <rect x="50" y="34" width="12" height="9" rx="2"/>
      <rect x="70" y="34" width="12" height="9" rx="2"/>
      <rect x="90" y="34" width="12" height="9" rx="2"/>
      <rect x="110" y="34" width="12" height="9" rx="2"/>
    </g>
    <text x="75" y="112" text-anchor="middle" font-family="Arial, sans-serif" font-size="15" font-weight="700" fill="#d8e7ff">Access switch</text>
  </g>

  <g transform="translate(444 211)">
    <rect width="98" height="98" rx="20" fill="#ffffff"/>
    <circle cx="49" cy="49" r="28" fill="#e8f3ff"/>
    <path d="M35 49h28M49 35v28" stroke="#1664e8" stroke-width="6" stroke-linecap="round"/>
    <text x="49" y="128" text-anchor="middle" font-family="Arial, sans-serif" font-size="15" font-weight="700" fill="#d8e7ff">Gateway</text>
  </g>

  <g transform="translate(575 130)">
    <rect width="78" height="104" rx="16" fill="#ffffff"/>
    <path d="M39 20l24 10v20c0 20-12 34-24 42-12-8-24-22-24-42V30l24-10z" fill="#dff6f1" stroke="#008c7d" stroke-width="4"/>
    <path d="M28 55l8 8 17-22" fill="none" stroke="#008c7d" stroke-width="5" stroke-linecap="round" stroke-linejoin="round"/>
    <text x="39" y="135" text-anchor="middle" font-family="Arial, sans-serif" font-size="15" font-weight="700" fill="#d8e7ff">Service</text>
  </g>

  <g transform="translate(82 72)" font-family="Arial, sans-serif">
    <text x="0" y="0" font-size="16" font-weight="800" fill="#65d38a">PHASE CONTEXT</text>
    <text x="0" y="30" font-size="28" font-weight="800" fill="#ffffff">See the network path</text>
    <text x="0" y="58" font-size="16" fill="#d8e7ff">Endpoint to switch to gateway to service, with scope and safety boundaries visible.</text>
  </g>

  <g transform="translate(92 322)" font-family="Arial, sans-serif" font-size="14" font-weight="700">
    <rect width="154" height="34" rx="17" fill="#123568"/>
    <text x="77" y="22" text-anchor="middle" fill="#ffffff">Local visual asset</text>
    <rect x="168" width="150" height="34" rx="17" fill="#123568"/>
    <text x="243" y="22" text-anchor="middle" fill="#ffffff">Preview only</text>
    <rect x="332" width="194" height="34" rx="17" fill="#123568"/>
    <text x="429" y="22" text-anchor="middle" fill="#ffffff">No vendor model claim</text>
  </g>
</svg>
