<svg xmlns="http://www.w3.org/2000/svg" width="96" height="96" viewBox="0 0 96 96" role="img" aria-labelledby="title desc">
  <title id="title">Command Doctor shield logo</title>
  <desc id="desc">Original Command Doctor mark with a shield, signal path, and medical cross.</desc>
  <defs>
    <linearGradient id="shield" x1="14" y1="10" x2="82" y2="86" gradientUnits="userSpaceOnUse">
      <stop stop-color="#103B83"/>
      <stop offset="1" stop-color="#071A3D"/>
    </linearGradient>
    <linearGradient id="pulse" x1="27" y1="52" x2="69" y2="52" gradientUnits="userSpaceOnUse">
      <stop stop-color="#10C6C3"/>
      <stop offset="1" stop-color="#2086FF"/>
    </linearGradient>
  </defs>
  <path d="M48 8 78 18v24c0 20-11.8 35.4-30 45C29.8 77.4 18 62 18 42V18L48 8Z" fill="url(#shield)"/>
  <path d="M48 16 70 23v19c0 15.4-8 27.5-22 35.2C34 69.5 26 57.4 26 42V23l22-7Z" fill="#0B2555" stroke="#9DD9FF" stroke-width="2"/>
  <path d="M40 31h16v9h9v16h-9v9H40v-9h-9V40h9v-9Z" fill="#F6FBFF"/>
  <path d="M28 67c8-7.5 14.7-7.5 20 0 5.3-7.5 12-7.5 20 0" fill="none" stroke="url(#pulse)" stroke-width="4" stroke-linecap="round" stroke-linejoin="round"/>
  <circle cx="28" cy="67" r="3.5" fill="#10C6C3"/>
  <circle cx="68" cy="67" r="3.5" fill="#2086FF"/>
</svg>
